<svg version="1.1" class="clearos-svg clearfoundation app-vendor-clearfoundation app-free app-category-network app-sub-category-infrastructure" viewBox="0 0 400 400" preserveAspectRatio="xMinYMin" xmlns="http://www.w3.org/2000/svg" xmlns:xlink= "http://www.w3.org/1999/xlink">
<path fill="#AA0707" d="M91.666,184.647"/>
<path fill="#AA0707" d="M123.245,247.805"/>
<path fill="#AA0707" d="M91.666,184.647"/>
<path fill="#AA0707" d="M123.245,247.805"/>
<g>
	<path fill="#686868" d="M200.005,2.872c-85.842,0-155.438,69.58-155.438,155.438c0,9.071,0,17.54,0,26.524h41.691
		c0-46.747,5.055-126.358,60.952-158.167c-32.134,34.055-27.904,158.166-27.904,158.166h15.159c0,0,0-12.35,0.992-30.326h56.961
		v30.326h15.159v-30.326h57.762c1,17.96,1,30.326,1,30.326h15.158c0,0,0.396-12.365,0-30.326h60.318
		c0.03,1.262,0.19,2.516,0.19,3.786c0,9.087-0.129,16.802-0.129,26.524h13.557c0-8.532,0-17.453,0-26.524
		C355.436,72.452,285.849,2.872,200.005,2.872z M317.563,78.698h-43.192c-4.144-21.619-10.57-40.944-20.522-51.722
		C279.849,37.658,301.976,55.745,317.563,78.698z M200.005,16.348c7.104,0,14.008,0.683,20.826,1.691c-0.246,0-0.365,0-0.619,0
		c18.254,2.746,29.254,29.42,35.92,60.659h-48.555V13.309h-15.144v65.389h-47.738c6.676-31.238,17.667-57.913,35.904-60.659
		c-0.754,0-1.237,0-1.841,0C185.704,16.999,192.773,16.348,200.005,16.348z M136.537,138.706c1.07-13.897,2.746-29.516,5.277-44.841
		h50.604v44.841H136.537z M207.577,138.706V93.865h51.428c2.541,15.325,4.207,30.944,5.318,44.841H207.577z M280.927,138.706
		c-0.668-13.897-1.871-29.532-4.031-44.841h49.523c7.063,13.793,11.873,28.897,14.097,44.841H280.927z"/>
	<path fill="#686868" d="M55.949,215.175v75.81H344.07v-75.81H55.949z M299.546,280.254c-15.016,0-27.189-12.158-27.189-27.174
		c0-15.018,12.176-27.191,27.189-27.191c15.016,0,27.189,12.176,27.189,27.191S314.563,280.254,299.546,280.254z"/>
	<path fill="#686868" d="M55.949,321.318v75.81H344.07v-75.81H55.949z M299.546,386.414c-15.016,0-27.189-12.159-27.189-27.191
		c0-15.016,12.176-27.188,27.189-27.188c15.016,0,27.189,12.175,27.189,27.188C326.735,374.255,314.563,386.414,299.546,386.414z"/>
</g>
</svg>
